<mxfile host="app.diagrams.net" modified="2023-07-28T09:21:04.593Z" agent="Mozilla/5.0 (Windows NT 10.0; Win64; x64) AppleWebKit/537.36 (KHTML, like Gecko) Chrome/115.0.0.0 Safari/537.36" version="21.6.5" etag="OzQr_Ik4fM6RsXjuf1WO" type="github">
  <diagram name="Page-1" id="SM3McS_dDD0NzlUsn2w9">
    <mxGraphModel>
      <root>
        <mxCell id="0" />
        <mxCell id="1" parent="0" />
      </root>
    </mxGraphModel>
  </diagram>
</mxfile>
